<svg width="138" height="60" viewBox="0 0 138 60" fill="none" xmlns="http://www.w3.org/2000/svg">
<g clip-path="url(#clip0_405_175)">
<path d="M10.1389 48.219H5.52375V59.9098H4.62149V48.219H0.00634766V47.4074H10.1389V48.219Z" fill="white"/>
<path d="M17.0649 59.0725C17.8957 59.0725 18.5838 58.9115 19.129 58.5958C19.6743 58.2802 20.1092 57.868 20.4207 57.3527C20.7388 56.8374 20.9595 56.2512 21.0958 55.6007C21.2256 54.9437 21.297 54.2867 21.297 53.6168V47.3559H22.1798V53.6168C22.1798 54.4477 22.089 55.24 21.9137 56C21.7319 56.7601 21.4463 57.43 21.0439 58.0097C20.6414 58.5894 20.1157 59.0467 19.4731 59.3881C18.8304 59.7295 18.032 59.897 17.0908 59.897C16.1107 59.897 15.2928 59.7166 14.6372 59.3623C13.9816 59.0081 13.4558 58.5314 13.0599 57.9388C12.6639 57.3462 12.3783 56.6763 12.216 55.9292C12.0473 55.182 11.9629 54.409 11.9629 53.6168V47.3559H12.8457V53.6168C12.8457 54.306 12.9106 54.9823 13.0469 55.6329C13.1767 56.2899 13.4104 56.8696 13.735 57.3784C14.066 57.8873 14.4944 58.2995 15.0397 58.6087C15.5719 58.9179 16.247 59.0725 17.0649 59.0725Z" fill="white"/>
<path d="M25.5098 59.9098V47.4074H30.7481C31.2803 47.4074 31.7736 47.5169 32.2215 47.7424C32.6694 47.9678 33.0589 48.2641 33.3834 48.6312C33.708 48.9984 33.9611 49.4171 34.1494 49.8808C34.3311 50.3446 34.422 50.8148 34.422 51.2786C34.422 51.7359 34.3506 52.1804 34.2078 52.6055C34.065 53.037 33.8638 53.4171 33.6041 53.7585C33.3445 54.0998 33.0329 54.3833 32.6629 54.6023C32.2929 54.8277 31.897 54.9694 31.4556 55.0403L34.5973 59.9034H33.5522L30.5014 55.182H26.4185V59.9034H25.5098V59.9098ZM26.4185 54.3639H30.8389C31.2414 54.3639 31.6049 54.2738 31.9424 54.0998C32.2735 53.9259 32.5591 53.694 32.7927 53.4042C33.0264 53.1143 33.2082 52.7858 33.3315 52.4187C33.4548 52.0515 33.5197 51.6715 33.5197 51.285C33.5197 50.8857 33.4483 50.4992 33.299 50.132C33.1497 49.7649 32.9485 49.4364 32.6954 49.153C32.4422 48.8696 32.1436 48.6441 31.8061 48.4767C31.4686 48.3092 31.1051 48.219 30.7156 48.219H26.4185V54.3639Z" fill="white"/>
<path d="M46.3135 57.9646C45.0932 59.3237 43.6781 60 42.0748 60C41.2245 60 40.4326 59.8197 39.7056 59.4525C38.9786 59.0918 38.3555 58.6087 37.8362 58.0097C37.3169 57.4106 36.9079 56.7343 36.6094 55.9743C36.3108 55.2142 36.168 54.4412 36.168 53.6554C36.168 52.8374 36.3108 52.0451 36.6029 51.285C36.895 50.525 37.2974 49.8487 37.8102 49.2689C38.323 48.6828 38.9397 48.219 39.6472 47.8712C40.3547 47.5234 41.1336 47.3559 41.971 47.3559C42.6006 47.3559 43.1653 47.4203 43.6651 47.5556C44.165 47.6908 44.6193 47.8776 45.0153 48.116C45.4112 48.3543 45.7553 48.6441 46.0474 48.9791C46.3395 49.314 46.5796 49.6812 46.7809 50.0741L46.0344 50.5121C45.606 49.6941 45.0413 49.1015 44.3402 48.7279C43.6392 48.3607 42.8408 48.1739 41.9515 48.1739C41.205 48.1739 40.53 48.335 39.9263 48.6506C39.3226 48.9662 38.8098 49.3849 38.3814 49.9002C37.953 50.4155 37.6285 51.0016 37.4078 51.6586C37.1806 52.3156 37.0702 52.9855 37.0702 53.6747C37.0702 54.409 37.2 55.1111 37.4597 55.7746C37.7193 56.438 38.0763 57.0177 38.5307 57.5201C38.9851 58.0226 39.5238 58.4219 40.134 58.7247C40.7507 59.021 41.4127 59.1755 42.1203 59.1755C42.8862 59.1755 43.6197 59.0016 44.3143 58.6474C45.0088 58.2931 45.6709 57.7391 46.3135 56.9791V54.5765H43.4574V53.8551H47.0989V59.9098H46.32V57.9646H46.3135Z" fill="white"/>
<path d="M54.473 59.8969C53.5967 59.8969 52.7983 59.7166 52.0778 59.3559C51.3573 58.9952 50.7341 58.5249 50.2148 57.9452C49.6956 57.3655 49.2931 56.6956 49.0075 55.942C48.7219 55.1884 48.5791 54.4155 48.5791 53.6232C48.5791 52.7987 48.7284 52.0064 49.0335 51.2528C49.3321 50.4992 49.7475 49.8293 50.2733 49.2496C50.799 48.6699 51.4222 48.2061 52.1427 47.8647C52.8632 47.5233 53.6421 47.3494 54.486 47.3494C55.3623 47.3494 56.1607 47.5298 56.8942 47.8969C57.6212 48.2641 58.2443 48.7407 58.7571 49.3333C59.2699 49.9259 59.6723 50.5958 59.9579 51.343C60.2435 52.0902 60.3863 52.8502 60.3863 53.6167C60.3863 54.4541 60.237 55.2464 59.932 56C59.6334 56.7536 59.218 57.4171 58.6922 57.9968C58.1664 58.57 57.5433 59.0274 56.8228 59.3752C56.0958 59.7295 55.3103 59.8969 54.473 59.8969ZM49.4814 53.6296C49.4814 54.3382 49.6047 55.0209 49.8449 55.6779C50.085 56.3349 50.4291 56.9146 50.8769 57.4171C51.3183 57.9195 51.8506 58.3253 52.4672 58.628C53.0839 58.9307 53.759 59.0789 54.4925 59.0789C55.2519 59.0789 55.9335 58.9243 56.5436 58.6087C57.1538 58.2931 57.6731 57.8808 58.108 57.3655C58.5429 56.8502 58.8739 56.2641 59.1076 55.6135C59.3413 54.963 59.4646 54.2995 59.4646 53.6296C59.4646 52.9211 59.3413 52.2383 59.0946 51.5813C58.848 50.9243 58.4974 50.3446 58.0561 49.8422C57.6147 49.3398 57.0889 48.934 56.4852 48.6312C55.8815 48.3285 55.2195 48.1803 54.4989 48.1803C53.7395 48.1803 53.0579 48.3349 52.4413 48.6506C51.8246 48.9662 51.2989 49.3784 50.864 49.8937C50.4291 50.409 50.0915 50.9952 49.8513 51.6457C49.6047 52.2898 49.4814 52.9533 49.4814 53.6296Z" fill="white"/>
<path d="M62.8012 47.4074L67.2022 54.3317L71.6226 47.4074H72.6352L67.663 55.1949V59.9098H66.7608V55.1562L61.8081 47.4074H62.8012Z" fill="white"/>
<path d="M78.5615 47.4074H79.3404L84.6631 59.9098H83.7024L81.9433 55.7874H75.9261L74.167 59.9098H73.1934L78.5615 47.4074ZM81.7031 55.0531L78.9509 48.5024L76.1468 55.0531H81.7031Z" fill="white"/>
<path d="M86.1753 59.9098V47.4074H87.0776V54.9952L94.4254 47.4074H95.477L90.2387 52.8824L95.7431 59.9098H94.711L89.6545 53.43L87.0776 56.058V59.9098H86.1753Z" fill="white"/>
<path d="M112.075 47.4074V59.9098H111.166V53.9259H103.214V59.9098H102.312V47.4074H103.214V53.1143H111.166V47.4074H112.075Z" fill="white"/>
<path d="M116.262 47.4074H115.359V59.9098H116.262V47.4074Z" fill="white"/>
<path d="M119.565 59.9098V47.4074H120.468V59.1047H127.991V59.9098H119.565Z" fill="white"/>
<path d="M129.568 59.9098V47.4074H130.477V59.1047H138V59.9098H129.568Z" fill="white"/>
<path d="M130.912 15.9871C129.237 15.8712 127.549 15.8196 125.848 15.8196C125.595 15.8196 125.336 15.8196 125.083 15.8261L112.555 6.2029L102.961 13.5652L108.53 17.8422L118.63 25.591C117.196 25.5072 115.748 25.4686 114.294 25.4686C113.451 25.4686 112.613 25.4815 111.782 25.5072L103.571 19.2077L99.5856 16.1481L96.7815 13.9903L85.2793 5.16586L62.1257 22.9372C59.393 23.1304 56.7057 23.4718 54.0703 23.9485L85.2858 0L100.157 11.4138L112.555 1.90016L130.912 15.9871Z" fill="#C8D0DB"/>
<path d="M22.0631 22.5765C22.0631 16.7472 17.3051 12.0258 11.4307 12.0258C5.55629 12.0258 0.79834 16.7472 0.79834 22.5765C0.79834 28.4058 5.55629 33.1272 11.4307 33.1272C17.3051 33.1272 22.0631 28.4058 22.0631 22.5765Z" fill="#F8B553"/>
<path d="M59.3153 8.99841C51.9609 24.2641 36.1552 34.8277 17.8374 34.8277C17.1169 34.8277 16.3964 34.8084 15.6823 34.7762C15.1501 34.7504 14.6243 34.7182 14.0985 34.6796C10.8011 34.3317 7.77623 33.0821 5.27068 31.1884C5.26419 31.182 5.2577 31.182 5.25121 31.1755C4.81631 30.847 4.40088 30.4992 3.99843 30.1321L3.99194 30.1256C2.59636 28.773 1.57727 27.0403 1.09693 25.095C0.902197 24.2899 0.79834 23.4525 0.79834 22.5894C0.79834 20.6506 1.32412 18.8342 2.24585 17.2754C4.41386 23.9098 10.457 28.8245 17.7335 29.3784C17.74 29.3784 17.74 29.3784 17.7465 29.3784C17.8958 29.3913 18.0451 29.3978 18.2009 29.4042C18.2139 29.4042 18.2204 29.4042 18.2333 29.4042C18.6488 29.43 19.0707 29.4429 19.4926 29.4557C19.9535 29.4686 20.4208 29.4751 20.8882 29.4751C23.7897 29.4751 26.6328 29.211 29.385 28.7021C41.8868 26.409 52.6035 19.1047 59.3153 8.99841Z" fill="#F8B553"/>
<path d="M115.859 40.0322C115.801 41.7391 114.405 43.1304 112.685 43.1948C111.867 43.227 111.108 42.963 110.517 42.4992C110.491 42.4799 110.465 42.4605 110.439 42.4412C102.799 36.2899 93.0234 32.5604 82.3586 32.4573H82.3456C74.1539 32.277 69.9737 32.4573 65.0599 33.1594C60.8213 33.7649 56.0373 34.7504 47.6639 36.219C39.1411 37.7198 35.0972 38.628 33.442 38.8921C32.7344 39.008 32.0269 39.1304 31.3129 39.2528C10.0611 42.9501 0.116839 37.2818 0 37.2109C0.12333 37.256 11.9111 41.1852 28.34 37.6232C28.34 37.6232 34.9154 36.4316 45.5023 33.5008C54.0186 31.1433 65.5857 28.5797 71.908 28.0451C71.908 28.0451 82.6961 27.124 89.6351 27.8905C98.9498 28.496 107.486 31.8776 114.379 37.1916C114.444 37.2432 114.509 37.2882 114.574 37.3398C114.82 37.533 115.048 37.752 115.236 38.0097C115.651 38.57 115.885 39.2721 115.859 40.0322Z" fill="#71BBC2"/>
</g>
<defs>
<clipPath id="clip0_405_175">
<rect width="138" height="60" fill="white"/>
</clipPath>
</defs>
</svg>
