<?xml version="1.0" encoding="utf-8"?><svg viewBox="0 0 138 60" xmlns="http://www.w3.org/2000/svg" xmlns:xlink="http://www.w3.org/1999/xlink"><style>:root>svg{display:none}:root>svg:target{display:block}</style><svg fill="none" viewBox="0 0 35 19" id="arrow" xmlns="http://www.w3.org/2000/svg"><path d="M34.263 9.17c-.092 0-5.158-2.479-10.223-9.17l-.737.496c3.592 4.791 7.184 7.434 9.118 8.674H0v.826h32.421c-1.934 1.156-5.526 3.8-9.118 8.674l.736.495c5.066-6.691 10.132-9.087 10.224-9.17l.83-.33-.83-.495Z" fill="currentColor"/></svg><svg fill="none" viewBox="0 0 138 60" id="logo" xmlns="http://www.w3.org/2000/svg"><g clip-path="url(#ba)"><path d="M10.139 48.219H5.524v11.69H4.62V48.22H.006v-.812H10.14v.812ZM17.065 59.072c.83 0 1.519-.16 2.064-.476.545-.316.98-.728 1.292-1.243a5.422 5.422 0 0 0 .675-1.752c.13-.657.201-1.314.201-1.984v-6.261h.883v6.26c0 .832-.091 1.624-.266 2.384-.182.76-.468 1.43-.87 2.01a4.377 4.377 0 0 1-1.57 1.378c-.644.342-1.442.509-2.383.509-.98 0-1.798-.18-2.454-.535a4.353 4.353 0 0 1-1.577-1.423 5.802 5.802 0 0 1-.844-2.01 10.482 10.482 0 0 1-.253-2.312v-6.261h.883v6.26c0 .69.065 1.366.2 2.017.13.657.364 1.237.689 1.745.331.51.76.922 1.305 1.23.532.31 1.207.465 2.025.465ZM25.51 59.91V47.407h5.238c.532 0 1.026.11 1.473.335.448.226.838.522 1.162.89.325.366.578.785.766 1.249.182.464.273.934.273 1.398 0 .457-.071.901-.214 1.326a3.91 3.91 0 0 1-.604 1.154c-.26.34-.571.624-.941.843-.37.226-.766.367-1.207.438l3.141 4.863h-1.045l-3.05-4.721h-4.083v4.721h-.91v.007Zm.909-5.546h4.42c.402 0 .766-.09 1.103-.264.331-.174.617-.406.85-.696.234-.29.416-.618.54-.985.123-.367.188-.747.188-1.134 0-.4-.072-.786-.221-1.153a3.358 3.358 0 0 0-.604-.979 2.93 2.93 0 0 0-.889-.676 2.425 2.425 0 0 0-1.09-.258h-4.297v6.145ZM46.313 57.965C45.093 59.324 43.678 60 42.075 60c-.85 0-1.642-.18-2.37-.547a5.95 5.95 0 0 1-1.869-1.443 6.968 6.968 0 0 1-1.227-2.036 6.285 6.285 0 0 1-.441-2.319c0-.818.143-1.61.435-2.37a6.58 6.58 0 0 1 1.207-2.016 5.833 5.833 0 0 1 1.837-1.398c.708-.348 1.487-.515 2.324-.515.63 0 1.194.064 1.694.2.5.135.954.322 1.35.56.396.238.74.528 1.032.863.293.335.533.702.734 1.095l-.747.438c-.428-.818-.993-1.41-1.694-1.784-.7-.367-1.5-.554-2.389-.554-.746 0-1.421.161-2.025.477a5.006 5.006 0 0 0-1.545 1.25 5.426 5.426 0 0 0-.973 1.758 6.115 6.115 0 0 0-.338 2.016c0 .734.13 1.436.39 2.1.26.663.616 1.243 1.07 1.745.455.503.994.902 1.604 1.205.617.296 1.279.45 1.986.45.766 0 1.5-.173 2.194-.528.695-.354 1.357-.908 2-1.668v-2.402h-2.857v-.722H47.1v6.055h-.779v-1.945h-.007ZM54.473 59.897c-.876 0-1.675-.18-2.395-.541a6.204 6.204 0 0 1-1.863-1.41 6.345 6.345 0 0 1-1.208-2.004 6.492 6.492 0 0 1-.428-2.319c0-.824.15-1.617.454-2.37a6.55 6.55 0 0 1 1.24-2.003 5.926 5.926 0 0 1 1.87-1.385c.72-.342 1.5-.516 2.343-.516.876 0 1.675.18 2.408.548.727.367 1.35.844 1.863 1.436a6.71 6.71 0 0 1 1.2 2.01 6.33 6.33 0 0 1 .43 2.274c0 .837-.15 1.63-.455 2.383a6.52 6.52 0 0 1-1.24 1.997 6.11 6.11 0 0 1-1.87 1.378 5.291 5.291 0 0 1-2.349.522Zm-4.992-6.267c0 .708.124 1.39.364 2.048.24.657.584 1.237 1.032 1.74.441.502.974.907 1.59 1.21.617.303 1.292.45 2.026.45.759 0 1.44-.154 2.05-.47a5.064 5.064 0 0 0 1.565-1.242 5.654 5.654 0 0 0 1-1.752c.233-.651.357-1.314.357-1.984a5.78 5.78 0 0 0-.37-2.049 5.595 5.595 0 0 0-1.039-1.739 5.148 5.148 0 0 0-1.57-1.21 4.366 4.366 0 0 0-1.987-.452c-.76 0-1.441.155-2.058.47a5.041 5.041 0 0 0-1.577 1.244 5.822 5.822 0 0 0-1.013 1.752 5.513 5.513 0 0 0-.37 1.984ZM62.801 47.407l4.401 6.925 4.42-6.925h1.013l-4.972 7.788v4.715h-.902v-4.754l-4.953-7.749h.993ZM78.561 47.407h.78l5.322 12.503h-.96l-1.76-4.123h-6.017l-1.759 4.123h-.974l5.368-12.503Zm3.142 7.646-2.752-6.55-2.804 6.55h5.556ZM86.175 59.91V47.407h.903v7.588l7.347-7.588h1.052l-5.238 5.475 5.504 7.028h-1.032l-5.056-6.48-2.577 2.628v3.852h-.903ZM112.075 47.407V59.91h-.909v-5.984h-7.952v5.984h-.902V47.407h.902v5.707h7.952v-5.707h.909ZM116.262 47.407h-.903V59.91h.903V47.407ZM119.565 59.91V47.407h.903v11.698h7.523v.805h-8.426ZM129.568 59.91V47.407h.909v11.698H138v.805h-8.432Z" fill="#fff"/><path d="M130.912 15.987a73.352 73.352 0 0 0-5.064-.167c-.253 0-.512 0-.765.006l-12.528-9.623-9.594 7.362 5.569 4.277 10.1 7.749a74.388 74.388 0 0 0-4.336-.122c-.843 0-1.681.012-2.512.038l-8.211-6.3-3.985-3.059-2.805-2.158L85.28 5.166 62.126 22.937c-2.733.193-5.42.535-8.056 1.011L85.286 0l14.871 11.414L112.555 1.9l18.357 14.087Z" fill="#C8D0DB"/><path d="M22.063 22.576c0-5.829-4.758-10.55-10.632-10.55-5.875 0-10.633 4.721-10.633 10.55 0 5.83 4.758 10.551 10.633 10.551 5.874 0 10.632-4.721 10.632-10.55Z" fill="#F8B553"/><path d="M59.315 8.998c-7.354 15.266-23.16 25.83-41.478 25.83-.72 0-1.44-.02-2.155-.052a63.746 63.746 0 0 1-1.584-.096 17.698 17.698 0 0 1-8.827-3.492c-.007-.006-.013-.006-.02-.012a17.58 17.58 0 0 1-1.253-1.044l-.006-.006a10.516 10.516 0 0 1-2.895-5.031 10.636 10.636 0 0 1-.299-2.506c0-1.938.526-3.755 1.448-5.314 2.168 6.635 8.211 11.55 15.487 12.103h.014c.149.013.298.02.454.026h.032a49.994 49.994 0 0 0 2.655.07c2.902.001 5.745-.263 8.497-.772 12.502-2.293 23.218-9.597 29.93-19.704Z" fill="#F8B553"/><path d="M115.859 40.032c-.058 1.707-1.454 3.098-3.174 3.163a3.29 3.29 0 0 1-2.168-.696l-.078-.058c-7.64-6.151-17.416-9.88-28.08-9.984h-.013c-8.192-.18-12.372 0-17.286.702-4.239.606-9.023 1.591-17.396 3.06-8.523 1.5-12.567 2.409-14.222 2.673-.708.116-1.415.238-2.13.36C10.063 42.95.118 37.283 0 37.212c.123.045 11.911 3.974 28.34.412 0 0 6.575-1.191 17.162-4.122 8.517-2.358 20.084-4.921 26.406-5.456 0 0 10.788-.921 17.727-.155 9.315.606 17.851 3.988 24.744 9.302.065.051.13.096.195.148.246.193.474.412.662.67.415.56.649 1.262.623 2.022Z" fill="#71BBC2"/></g><defs><clipPath id="ba"><path fill="#fff" d="M0 0h138v60H0z"/></clipPath></defs></svg><svg fill="none" viewBox="0 0 14 13" id="telegram" xmlns="http://www.w3.org/2000/svg"><path fill-rule="evenodd" clip-rule="evenodd" d="M13.398.873.49 5.825c-.496.191-.461.904.05 1.043l3.139.895 7.43-4.614c.103-.07.223.087.12.191L5.664 8.605l4.882 3.997a.869.869 0 0 0 1.417-.504L13.995 1.36c.051-.33-.29-.608-.597-.487Zm-5.84 9.296-1.622 1.772c-.188.226-.46.261-.7.174l.41-3.51 1.912 1.564Z" fill="currentColor"/></svg><svg fill="none" viewBox="0 0 15 15" id="viber" xmlns="http://www.w3.org/2000/svg"><path fill-rule="evenodd" clip-rule="evenodd" d="M12.815 2.18A7.438 7.438 0 0 0 7.53 0C3.415 0 .064 3.334.063 7.432c0 1.31.343 2.59.997 3.716L0 15l3.96-1.034a7.49 7.49 0 0 0 3.568.905h.003c4.117 0 7.467-3.334 7.469-7.433a7.37 7.37 0 0 0-2.185-5.258ZM7.53 13.616H7.53a6.223 6.223 0 0 1-3.16-.861l-.226-.134-2.35.613.627-2.28-.147-.233a6.14 6.14 0 0 1-.95-3.288c.002-3.406 2.787-6.178 6.21-6.178a6.18 6.18 0 0 1 4.39 1.812 6.127 6.127 0 0 1 1.816 4.37c-.001 3.407-2.786 6.179-6.208 6.179Zm3.405-4.627c-.186-.093-1.104-.542-1.275-.604-.17-.062-.295-.093-.42.093-.124.185-.482.604-.59.728-.11.124-.218.14-.405.046-.187-.093-.788-.289-1.5-.922a5.606 5.606 0 0 1-1.039-1.286c-.108-.186 0-.277.082-.38.202-.249.404-.51.467-.634.062-.124.03-.233-.016-.326-.047-.093-.42-1.007-.575-1.379-.152-.362-.306-.313-.42-.319A7.496 7.496 0 0 0 4.887 4a.687.687 0 0 0-.498.232c-.17.186-.653.635-.653 1.55 0 .914.67 1.797.762 1.92.094.125 1.316 2 3.188 2.805.446.192.793.306 1.064.391a2.57 2.57 0 0 0 1.176.074c.358-.053 1.104-.45 1.26-.883.155-.434.155-.806.108-.883-.047-.078-.171-.124-.358-.217Z" fill="currentColor"/></svg></svg>